<svg id="Layer_1" data-name="Layer 1" xmlns="http://www.w3.org/2000/svg" viewBox="0 0 868 920"><defs><style>.cls-1{fill:#1f1917;}.cls-2{fill:#84c127;}</style></defs><title>LOGO DASKOM AI</title><path class="cls-1" d="M687.13,169.55V0C525.37,0,393.49,130.74,387,294.51H553.16C559.39,224.45,617,169.55,687.13,169.55Z" transform="translate(0.06)"/><path class="cls-1" d="M553.16,294.51h25.47c4.85-53.48,48.93-95.36,102.61-95.36,2,0,3.94.07,5.89.18V169.55C617,169.55,559.39,224.45,553.16,294.51Z" transform="translate(0.06)"/><path class="cls-1" d="M157.87,612.87c0,72.94,52.9,132.6,119.75,137.25V726.35c-56.14-2.33-101-51-101-110.68s44.83-108.35,101-110.68V475.61C210.77,480.27,157.87,539.92,157.87,612.87Z" transform="translate(0.06)"/><path class="cls-1" d="M-.06,612.87c0,166.6,123.57,302.21,277.68,307V750.12c-66.85-4.65-119.75-64.31-119.75-137.25s52.9-132.6,119.75-137.26V305.87C123.51,310.65-.06,446.26-.06,612.87Z" transform="translate(0.06)"/><path class="cls-2" d="M388.39,695.61H387V615.67c0,56.69-40.42,103.4-92.56,110v24.48C332.83,747.45,366.57,726.64,388.39,695.61Z" transform="translate(0.06)"/><path class="cls-2" d="M388.39,695.61c-21.82,31-55.56,51.84-93.94,54.51V919.86c72.7-2.26,138.59-33.63,187.92-83.62,37.27-37.76,65.09-86.13,79.26-140.63Z" transform="translate(0.06)"/><polygon class="cls-2" points="388.45 695.61 561.69 695.61 576.39 695.61 580.61 695.61 580.61 632.5 580.61 524.45 580.61 324.29 580.61 314.15 387.07 314.15 387.07 325.44 387.07 528.15 387.07 615.67 387.07 695.61 388.45 695.61"/><path class="cls-2" d="M678.72,750.45a121.55,121.55,0,0,0,72.4-24.06l-20.28-20.28a103,103,0,0,1-53.52,14.74c-53.45,0-96.77-39.55-96.77-88.35v63.11h-4.22C599.72,728.91,636.87,750.45,678.72,750.45Z" transform="translate(0.06)"/><path class="cls-2" d="M678.72,750.45c-41.85,0-79-21.54-102.39-54.84h-14.7c-14.17,54.5-42,102.87-79.26,140.63C533.61,888.16,602.7,920,678.72,920c72.55,0,138.79-29,189.22-76.79L751.12,726.39A121.55,121.55,0,0,1,678.72,750.45Z" transform="translate(0.06)"/><path class="cls-1" d="M146,612.87c0,79.8,57.86,145.06,131,150.15V737c-61.41-2.55-110.46-55.77-110.46-121.09S215.59,497.4,277,494.85V462.71C203.86,467.8,146,533.06,146,612.87Z" transform="translate(0.06)"/><path class="cls-1" d="M550.88,294h25.88c4.93-54.34,49.71-96.89,104.26-96.89,2,0,4,.07,6,.19V167C615.72,167,557.21,222.81,550.88,294Z" transform="translate(0.06)"/><rect class="cls-2" x="432.06" y="683" width="158" height="86"/><rect class="cls-2" x="376.06" y="688" width="158" height="86"/><rect class="cls-2" x="324.06" y="726" width="158" height="86"/><rect class="cls-2" x="497.06" y="735" width="158" height="86"/></svg>